<svg width="526" height="527" viewBox="0 0 526 527" fill="none" xmlns="http://www.w3.org/2000/svg">
<path fill-rule="evenodd" clip-rule="evenodd" d="M263 71C156.685 71 70.5 157.185 70.5 263.5C70.5 369.815 156.685 456 263 456C369.315 456 455.5 369.815 455.5 263.5C455.5 157.185 369.315 71 263 71ZM0.5 263.5C0.5 118.525 118.025 1 263 1C407.975 1 525.5 118.525 525.5 263.5C525.5 408.475 407.975 526 263 526C118.025 526 0.5 408.475 0.5 263.5Z" stroke="#444544"/>
<path fill-rule="evenodd" clip-rule="evenodd" d="M263 193.5C224.34 193.5 193 224.841 193 263.5C193 302.16 224.34 333.5 263 333.5C301.66 333.5 333 302.16 333 263.5C333 224.841 301.66 193.5 263 193.5ZM123 263.5C123 186.181 185.68 123.5 263 123.5C340.32 123.5 403 186.181 403 263.5C403 340.82 340.32 403.5 263 403.5C185.68 403.5 123 340.82 123 263.5Z" stroke="#444544"/>
</svg>
