<svg width="200" height="29" viewBox="0 0 200 29" fill="none" xmlns="http://www.w3.org/2000/svg">
<path d="M24.1592 8.42752C24.8373 7.7457 25.2561 6.80539 25.2561 5.76665C25.2561 3.68597 23.5745 1.99902 21.5004 1.99902C20.1889 1.99902 19.0362 2.67444 18.3645 3.69558C18.1858 3.87483 3.23647 22.3593 3.09687 22.5713C2.41881 23.2532 2 24.1935 2 25.2314C2 27.3121 3.68161 28.999 5.75569 28.999C7.06715 28.999 8.21987 28.3236 8.89155 27.3025C9.07024 27.1232 24.0196 8.63959 24.1592 8.42752Z" fill="#E8EDDF"/>
<path d="M32.8072 17.1985C33.4869 16.5167 33.9065 15.5747 33.9065 14.5352C33.9065 12.4545 32.2249 10.7676 30.1508 10.7676C28.8393 10.7676 27.6858 11.443 27.0142 12.4657C26.8339 12.6466 18.9827 22.3554 18.8415 22.5698C18.1618 23.2516 17.7422 24.1936 17.7422 25.2331C17.7422 27.3138 19.4238 29.0007 21.4979 29.0007C22.8093 29.0007 23.9629 28.3253 24.6345 27.3026C24.8148 27.1217 32.666 17.4129 32.8072 17.1985V17.1985Z" fill="#E8EDDF"/>
<path d="M40.9007 6.62637C41.374 4.60046 40.1205 2.57323 38.101 2.09843C36.0815 1.62363 34.0607 2.88105 33.5874 4.90696C33.1142 6.93287 34.3676 8.9601 36.3871 9.4349C38.4066 9.9097 40.4274 8.65227 40.9007 6.62637Z" fill="#E8EDDF"/>
<path d="M7.14185 9.26931C9.0696 8.50129 10.0117 6.31097 9.24613 4.37709C8.48055 2.44321 6.29716 1.49809 4.36941 2.26611C2.44166 3.03413 1.49954 5.22446 2.26512 7.15834C3.03071 9.09221 5.21409 10.0373 7.14185 9.26931Z" fill="#E8EDDF"/>
<path d="M60.2878 24.5C59.3624 24.5 58.5526 24.3279 57.8585 23.9836C57.1645 23.6393 56.6026 23.1557 56.1729 22.5328L55.8259 24.2049H53V6.5L56.1729 6.5V13.7541C56.5695 13.2131 57.0901 12.7377 57.7346 12.3279C58.3956 11.918 59.2467 11.7131 60.2878 11.7131C61.4446 11.7131 62.4774 11.9918 63.3864 12.5492C64.2953 13.1066 65.0141 13.8689 65.543 14.8361C66.0718 15.8033 66.3362 16.9016 66.3362 18.1311C66.3362 19.3607 66.0718 20.459 65.543 21.4262C65.0141 22.3771 64.2953 23.1311 63.3864 23.6885C62.4774 24.2295 61.4446 24.5 60.2878 24.5ZM59.6185 21.7459C60.6266 21.7459 61.4611 21.4098 62.1221 20.7377C62.7832 20.0656 63.1137 19.1967 63.1137 18.1311C63.1137 17.0656 62.7832 16.1885 62.1221 15.5C61.4611 14.8115 60.6266 14.4672 59.6185 14.4672C58.5939 14.4672 57.7511 14.8115 57.0901 15.5C56.4456 16.1721 56.1233 17.041 56.1233 18.1066C56.1233 19.1721 56.4456 20.0492 57.0901 20.7377C57.7511 21.4098 58.5939 21.7459 59.6185 21.7459Z" fill="#E8EDDF"/>
<path d="M74.1434 24.5C72.904 24.5 71.805 24.2377 70.8465 23.7131C69.888 23.1885 69.1361 22.4508 68.5908 21.5C68.0454 20.5492 67.7728 19.4508 67.7728 18.2049C67.7728 16.9426 68.0372 15.8197 68.566 14.8361C69.1113 13.8525 69.855 13.0902 70.7969 12.5492C71.7554 11.9918 72.8792 11.7131 74.1682 11.7131C75.3745 11.7131 76.4405 11.9754 77.3659 12.5C78.2913 13.0246 79.0102 13.7459 79.5225 14.6639C80.0513 15.5656 80.3157 16.5738 80.3157 17.6885C80.3157 17.8689 80.3074 18.0574 80.2909 18.2541C80.2909 18.4508 80.2827 18.6557 80.2661 18.8689H70.9209C70.987 19.8197 71.3175 20.5656 71.9124 21.1066C72.5239 21.6475 73.2593 21.918 74.1186 21.918C74.7631 21.918 75.3002 21.7787 75.7298 21.5C76.176 21.2049 76.5066 20.8279 76.7214 20.3689H79.9439C79.7125 21.1393 79.3242 21.8443 78.7788 22.4836C78.25 23.1066 77.589 23.5984 76.7958 23.959C76.019 24.3197 75.1349 24.5 74.1434 24.5ZM74.1682 14.2705C73.3915 14.2705 72.7057 14.4918 72.1107 14.9344C71.5158 15.3607 71.1357 16.0164 70.9705 16.9016H77.0932C77.0436 16.0984 76.7462 15.459 76.2008 14.9836C75.6555 14.5082 74.9779 14.2705 74.1682 14.2705Z" fill="#E8EDDF"/>
<path d="M88.0067 24.5C86.7508 24.5 85.6436 24.2295 84.6851 23.6885C83.7266 23.1475 82.9664 22.3934 82.4045 21.4262C81.8592 20.459 81.5865 19.3525 81.5865 18.1066C81.5865 16.8607 81.8592 15.7541 82.4045 14.7869C82.9664 13.8197 83.7266 13.0656 84.6851 12.5246C85.6436 11.9836 86.7508 11.7131 88.0067 11.7131C89.5767 11.7131 90.8987 12.123 91.9729 12.9426C93.047 13.7459 93.7328 14.8607 94.0303 16.2869H90.6839C90.5186 15.6967 90.1881 15.2377 89.6923 14.9098C89.2131 14.5656 88.643 14.3934 87.9819 14.3934C87.1061 14.3934 86.3624 14.7213 85.751 15.377C85.1395 16.0328 84.8338 16.9426 84.8338 18.1066C84.8338 19.2705 85.1395 20.1803 85.751 20.8361C86.3624 21.4918 87.1061 21.8197 87.9819 21.8197C88.643 21.8197 89.2131 21.6557 89.6923 21.3279C90.1881 21 90.5186 20.5328 90.6839 19.9262H94.0303C93.7328 21.3033 93.047 22.4098 91.9729 23.2459C90.8987 24.082 89.5767 24.5 88.0067 24.5Z" fill="#E8EDDF"/>
<path d="M101.745 24.5C100.555 24.5 99.4809 24.2295 98.5224 23.6885C97.5805 23.1475 96.8286 22.4016 96.2667 21.4508C95.7214 20.4836 95.4487 19.3689 95.4487 18.1066C95.4487 16.8443 95.7296 15.7377 96.2915 14.7869C96.8534 13.8197 97.6053 13.0656 98.5472 12.5246C99.5057 11.9836 100.58 11.7131 101.77 11.7131C102.943 11.7131 104.001 11.9836 104.943 12.5246C105.901 13.0656 106.653 13.8197 107.198 14.7869C107.76 15.7377 108.041 16.8443 108.041 18.1066C108.041 19.3689 107.76 20.4836 107.198 21.4508C106.653 22.4016 105.901 23.1475 104.943 23.6885C103.984 24.2295 102.918 24.5 101.745 24.5ZM101.745 21.7705C102.571 21.7705 103.29 21.4672 103.902 20.8607C104.513 20.2377 104.819 19.3197 104.819 18.1066C104.819 16.8934 104.513 15.9836 103.902 15.377C103.29 14.7541 102.579 14.4426 101.77 14.4426C100.927 14.4426 100.2 14.7541 99.5883 15.377C98.9934 15.9836 98.696 16.8934 98.696 18.1066C98.696 19.3197 98.9934 20.2377 99.5883 20.8607C100.2 21.4672 100.919 21.7705 101.745 21.7705Z" fill="#E8EDDF"/>
<path d="M109.877 24.2049V12.0082L112.678 12.0082L112.926 14.0738C113.306 13.3525 113.851 12.7787 114.562 12.3525C115.289 11.9262 116.14 11.7131 117.115 11.7131C118.636 11.7131 119.817 12.1885 120.66 13.1393C121.503 14.0902 121.924 15.4836 121.924 17.3197V24.2049H118.751V17.6148C118.751 16.5656 118.536 15.7623 118.107 15.2049C117.677 14.6475 117.008 14.3689 116.099 14.3689C115.206 14.3689 114.471 14.6803 113.893 15.3033C113.331 15.9262 113.05 16.7951 113.05 17.9098V24.2049H109.877Z" fill="#E8EDDF"/>
<path d="M129.039 24.5C127.948 24.5 126.989 24.3279 126.163 23.9836C125.337 23.623 124.676 23.1311 124.18 22.5082C123.684 21.8852 123.387 21.1639 123.288 20.3443L126.485 20.3443C126.585 20.8197 126.849 21.2295 127.279 21.5738C127.725 21.9016 128.295 22.0656 128.989 22.0656C129.683 22.0656 130.187 21.9262 130.501 21.6475C130.832 21.3689 130.997 21.0492 130.997 20.6885C130.997 20.1639 130.766 19.8115 130.303 19.6311C129.84 19.4344 129.196 19.2459 128.369 19.0656C127.84 18.9508 127.303 18.8115 126.758 18.6475C126.213 18.4836 125.709 18.2787 125.246 18.0328C124.8 17.7705 124.436 17.4426 124.155 17.0492C123.874 16.6393 123.734 16.1393 123.734 15.5492C123.734 14.4672 124.164 13.5574 125.023 12.8197C125.899 12.082 127.122 11.7131 128.692 11.7131C130.146 11.7131 131.303 12.0492 132.162 12.7213C133.038 13.3934 133.558 14.3197 133.724 15.5H130.724C130.542 14.5984 129.857 14.1475 128.667 14.1475C128.072 14.1475 127.609 14.2623 127.279 14.4918C126.965 14.7213 126.808 15.0082 126.808 15.3525C126.808 15.7131 127.047 16 127.526 16.2131C128.006 16.4262 128.642 16.623 129.435 16.8033C130.295 17 131.08 17.2213 131.79 17.4672C132.517 17.6967 133.096 18.0492 133.525 18.5246C133.955 18.9836 134.17 19.6475 134.17 20.5164C134.186 21.2705 133.988 21.9508 133.575 22.5574C133.162 23.1639 132.567 23.6393 131.79 23.9836C131.013 24.3279 130.096 24.5 129.039 24.5Z" fill="#E8EDDF"/>
<path d="M140.59 24.5C139.053 24.5 137.863 24.0246 137.02 23.0738C136.194 22.123 135.781 20.7295 135.781 18.8934V12.0082H138.929V18.5984C138.929 19.6475 139.144 20.4508 139.574 21.0082C140.003 21.5656 140.681 21.8443 141.606 21.8443C142.482 21.8443 143.201 21.5328 143.763 20.9098C144.341 20.2869 144.631 19.418 144.631 18.3033V12.0082H147.803V24.2049H145.002L144.754 22.1393C144.374 22.8607 143.821 23.4344 143.094 23.8607C142.383 24.2869 141.548 24.5 140.59 24.5Z" fill="#E8EDDF"/>
<path d="M150.059 24.2049V6.5H153.232V24.2049L150.059 24.2049Z" fill="#E8EDDF"/>
<path d="M160.951 24.2049C159.662 24.2049 158.63 23.8934 157.853 23.2705C157.076 22.6475 156.688 21.541 156.688 19.9508V14.6393H154.581V12.0082L156.688 12.0082L157.06 8.7377H159.861V12.0082H163.182V14.6393H159.861V19.9754C159.861 20.5656 159.985 20.9754 160.233 21.2049C160.497 21.418 160.943 21.5246 161.571 21.5246H163.108V24.2049H160.951Z" fill="#E8EDDF"/>
<path d="M169.144 24.5C168.087 24.5 167.219 24.3361 166.541 24.0082C165.864 23.6639 165.36 23.2131 165.029 22.6557C164.699 22.0984 164.534 21.4836 164.534 20.8115C164.534 19.6803 164.98 18.7623 165.872 18.0574C166.764 17.3525 168.103 17 169.888 17H173.011V16.7049C173.011 15.8689 172.772 15.2541 172.292 14.8607C171.813 14.4672 171.218 14.2705 170.508 14.2705C169.863 14.2705 169.301 14.4262 168.822 14.7377C168.343 15.0328 168.045 15.4754 167.93 16.0656H164.831C164.914 15.1803 165.211 14.4098 165.723 13.7541C166.252 13.0984 166.93 12.5984 167.756 12.2541C168.582 11.8934 169.508 11.7131 170.532 11.7131C172.284 11.7131 173.664 12.1475 174.672 13.0164C175.68 13.8852 176.184 15.1148 176.184 16.7049V24.2049L173.482 24.2049L173.185 22.2377C172.821 22.8934 172.309 23.4344 171.648 23.8607C171.003 24.2869 170.169 24.5 169.144 24.5ZM169.863 22.041C170.772 22.041 171.474 21.7459 171.97 21.1557C172.482 20.5656 172.805 19.8361 172.937 18.9672H170.235C169.392 18.9672 168.789 19.123 168.425 19.4344C168.062 19.7295 167.88 20.0984 167.88 20.541C167.88 21.0164 168.062 21.3852 168.425 21.6475C168.789 21.9098 169.268 22.041 169.863 22.041Z" fill="#E8EDDF"/>
<path d="M178.211 24.2049V12.0082H181.012L181.26 14.0738C181.64 13.3525 182.185 12.7787 182.896 12.3525C183.623 11.9262 184.474 11.7131 185.449 11.7131C186.969 11.7131 188.151 12.1885 188.994 13.1393C189.837 14.0902 190.258 15.4836 190.258 17.3197V24.2049H187.085V17.6148C187.085 16.5656 186.87 15.7623 186.441 15.2049C186.011 14.6475 185.342 14.3689 184.433 14.3689C183.54 14.3689 182.805 14.6803 182.226 15.3033C181.665 15.9262 181.384 16.7951 181.384 17.9098V24.2049H178.211Z" fill="#E8EDDF"/>
<path d="M197.769 24.2049C196.48 24.2049 195.447 23.8934 194.67 23.2705C193.894 22.6475 193.505 21.541 193.505 19.9508V14.6393H191.398V12.0082H193.505L193.877 8.7377H196.678V12.0082L200 12.0082V14.6393H196.678V19.9754C196.678 20.5656 196.802 20.9754 197.05 21.2049C197.315 21.418 197.761 21.5246 198.389 21.5246H199.926V24.2049H197.769Z" fill="#E8EDDF"/>
</svg>
