<svg width="35" height="30" viewBox="0 0 35 30" fill="none" xmlns="http://www.w3.org/2000/svg">
<path d="M8.06124 13.9831C10.9466 13.9831 13.1027 14.649 14.5295 15.9807C15.988 17.3124 16.7173 19.1673 16.7173 21.5453C16.7173 23.7014 15.9722 25.5087 14.4819 26.9672C12.9917 28.394 11.121 29.1074 8.86977 29.1074C6.7454 29.1074 4.87468 28.2672 3.25762 26.5867C1.64056 24.9062 0.832031 22.4014 0.832031 19.0721C0.832031 15.7112 1.32349 12.7466 2.30641 10.1783C3.32104 7.61002 4.79542 5.5015 6.72955 3.85274C8.69538 2.20397 11.1051 1.06252 13.9588 0.428375C14.1807 0.364962 14.371 0.364962 14.5295 0.428375C14.688 0.491788 14.7673 0.586908 14.7673 0.713735C14.7673 0.87227 14.7197 1.01495 14.6246 1.14178C14.5295 1.2369 14.3868 1.31617 14.1966 1.37959C11.6283 2.01373 9.59904 2.98079 8.1088 4.28078C6.61857 5.58077 5.54053 6.99174 4.87468 8.51367C4.24054 10.0039 3.92347 11.3356 3.92347 12.5088C3.92347 12.9527 4.0503 13.3173 4.30396 13.6027C4.55761 13.8563 4.98566 13.9831 5.58809 13.9831L8.06124 13.9831ZM25.6587 13.888C28.544 13.888 30.7001 14.5697 32.1269 15.9331C33.5854 17.2648 34.3147 19.1038 34.3147 21.4502C34.3147 23.638 33.5696 25.4611 32.0793 26.9196C30.5891 28.3464 28.7025 29.0599 26.4196 29.0599C24.2953 29.0599 22.4245 28.2196 20.8075 26.5391C19.2221 24.8587 18.4295 22.338 18.4295 18.977C18.4295 15.6478 18.9209 12.699 19.9038 10.1307C20.8868 7.53076 22.3453 5.40638 24.2794 3.75761C26.2452 2.10885 28.6708 0.983248 31.5562 0.380812C31.7781 0.317399 31.9525 0.317399 32.0793 0.380812C32.2379 0.41252 32.3172 0.507642 32.3172 0.666177C32.3489 0.824713 32.3172 0.967393 32.222 1.09422C32.1269 1.18934 31.9684 1.25276 31.7464 1.28447C29.1782 1.91861 27.1489 2.88567 25.6587 4.18566C24.1684 5.48565 23.1062 6.89662 22.4721 8.41856C21.838 9.90879 21.5209 11.2563 21.5209 12.4612C21.5209 12.9051 21.6319 13.2539 21.8538 13.5075C22.1075 13.7612 22.5355 13.888 23.138 13.888H25.6587Z" fill="#242423"/>
</svg>
