<svg width="39" height="27" viewBox="0 0 39 27" fill="none" xmlns="http://www.w3.org/2000/svg">
<g clip-path="url(#clip0_928_6878)">
<path d="M22.1592 6.42776C22.8373 5.74594 23.2561 4.80563 23.2561 3.7669C23.2561 1.68622 21.5745 -0.000732422 19.5004 -0.000732422C18.1889 -0.000732422 17.0362 0.674688 16.3645 1.69582C16.1858 1.87508 1.23647 20.3595 1.09687 20.5716C0.418806 21.2534 0 22.1937 0 23.2316C0 25.3123 1.68161 26.9993 3.75569 26.9993C5.06715 26.9993 6.21987 26.3238 6.89155 25.3027C7.07024 25.1235 22.0196 6.63903 22.1592 6.42696V6.42776Z" fill="#333533"/>
<path d="M30.8072 15.1985C31.4869 14.5167 31.9065 13.5747 31.9065 12.5352C31.9065 10.4545 30.2249 8.76758 28.1508 8.76758C26.8393 8.76758 25.6858 9.443 25.0142 10.4657C24.8339 10.6466 16.9827 20.3554 16.8415 20.5698C16.1618 21.2516 15.7422 22.1936 15.7422 23.2331C15.7422 25.3138 17.4238 27.0007 19.4979 27.0007C20.8093 27.0007 21.9629 26.3253 22.6345 25.3026C22.8148 25.1217 30.666 15.4129 30.8072 15.1985V15.1985Z" fill="#333533"/>
<path d="M38.9007 4.62637C39.374 2.60046 38.1205 0.57323 36.101 0.0984299C34.0815 -0.37637 32.0607 0.881054 31.5874 2.90696C31.1142 4.93287 32.3676 6.9601 34.3871 7.4349C36.4066 7.9097 38.4274 6.65227 38.9007 4.62637Z" fill="#333533"/>
<path d="M5.14185 7.26907C7.0696 6.50105 8.01172 4.31072 7.24613 2.37684C6.48055 0.442965 4.29716 -0.50215 2.36941 0.26587C0.441658 1.03389 -0.500463 3.22421 0.265124 5.15809C1.03071 7.09197 3.21409 8.03709 5.14185 7.26907Z" fill="#333533"/>
</g>
<defs>
<clipPath id="clip0_928_6878">
<rect width="39" height="27" fill="white"/>
</clipPath>
</defs>
</svg>
