<svg width="109" height="104" viewBox="0 0 109 104" fill="none" xmlns="http://www.w3.org/2000/svg">
<path d="M55.1222 55.5771H53.9378C53.9378 49.4855 53.2559 44.433 51.8921 40.4197C50.5283 36.3347 48.9491 32.8231 47.1546 29.8848C45.4319 26.9465 43.8886 24.2231 42.5248 21.7148C41.161 19.2065 40.4791 16.5549 40.4791 13.7599C40.4791 4.58663 45.1807 0 54.5838 0C59.1059 0 62.5514 1.14665 64.9201 3.43997C67.3606 5.73329 68.5808 9.17326 68.5808 13.7599C68.5808 16.6265 67.8989 19.314 66.5351 21.8223C65.1713 24.259 63.5922 26.9465 61.7977 29.8848C60.075 32.8231 58.5317 36.3347 57.1679 40.4197C55.8041 44.433 55.1222 49.4855 55.1222 55.5771ZM54.6915 55.0396L54.3685 56.1146C48.6261 54.2512 43.5656 53.3554 39.1871 53.4271C34.8803 53.4271 31.0401 53.8212 27.6664 54.6096C24.3645 55.3979 21.3139 56.0429 18.5145 56.5446C15.7151 57.0462 12.9875 56.8312 10.3316 55.8996C1.57449 53.1046 -1.33258 47.2638 1.61038 38.3772C3.04598 34.0772 5.23526 31.1389 8.17823 29.5623C11.1212 27.9856 14.7102 27.8781 18.9452 29.2398C21.6728 30.1714 24.0057 31.6764 25.9437 33.7547C27.9535 35.7614 30.071 38.0905 32.2962 40.7422C34.5932 43.3222 37.4643 45.9021 40.9098 48.4821C44.3552 50.9904 48.9491 53.1763 54.6915 55.0396ZM54.0455 55.2546L55.0145 55.8996C51.4255 60.7729 48.985 65.2878 47.693 69.4445C46.4009 73.5294 45.6113 77.2919 45.3242 80.7319C45.0371 84.1002 44.7141 87.1818 44.3552 89.9768C43.9963 92.7718 42.9914 95.3518 41.3405 97.7167C35.957 105.027 29.425 105.958 21.7446 100.512C18.1556 97.8601 16.0381 94.8859 15.3921 91.5893C14.8179 88.2927 15.8587 84.8168 18.5145 81.1619C20.1654 78.8686 22.247 77.1127 24.7593 75.8944C27.3434 74.6761 30.2146 73.3861 33.3729 72.0244C36.603 70.6628 39.9766 68.7636 43.4938 66.327C47.011 63.8187 50.5283 60.1279 54.0455 55.2546ZM54.0455 55.8996L55.0145 55.2546C58.5317 60.1279 62.0489 63.8187 65.5661 66.327C69.0833 68.8353 72.4211 70.7703 75.5794 72.1319C78.8095 73.4219 81.6806 74.6761 84.1929 75.8944C86.777 77.1127 88.8945 78.8686 90.5454 81.1619C95.9289 88.5435 94.8163 95.0293 87.2077 100.619C83.6187 103.199 80.1374 104.274 76.7637 103.844C73.4619 103.343 70.483 101.3 67.8272 97.7167C66.1045 95.3518 65.0636 92.7718 64.7047 89.9768C64.3458 87.1818 64.0228 84.1002 63.7357 80.7319C63.4486 77.2919 62.659 73.5294 61.367 69.4445C60.075 65.2878 57.6344 60.7729 54.0455 55.8996ZM54.3685 55.0396C60.1108 53.1763 64.7048 50.9904 68.1502 48.4821C71.6674 45.9021 74.5386 43.3222 76.7637 40.7422C79.0607 38.0905 81.1782 35.7614 83.1162 33.7547C85.0543 31.6764 87.3871 30.1714 90.1148 29.2398C98.8001 26.4448 104.578 29.5264 107.45 38.4847C108.885 42.713 108.849 46.3321 107.342 49.3421C105.906 52.3521 103.071 54.5379 98.836 55.8996C96.1084 56.8312 93.309 57.0462 90.4378 56.5446C87.6384 56.0429 84.5518 55.3979 81.1782 54.6096C77.8763 53.8212 74.072 53.4271 69.7652 53.4271C65.4584 53.3554 60.4339 54.2512 54.6915 56.1146L54.3685 55.0396Z" fill="#242423"/>
</svg>
