<svg xmlns="http://www.w3.org/2000/svg" width="101" height="95" viewBox="0 0 101 95" fill="none"><rect x="0.5" width="100" height="95" rx="24" fill="#F5CB5C"></rect><path d="M38.346 32.3625C40.8543 32.3625 42.99 32.986 44.753 34.233C46.5303 35.4657 47.8848 37.2502 48.8165 39.5865C49.7625 41.9228 50.2355 44.7322 50.2355 48.0145C50.2355 51.2538 49.7338 54.0345 48.7305 56.3565C47.7415 58.6785 46.3368 60.463 44.5165 61.71C42.7105 62.957 40.582 63.5805 38.131 63.5805C35.6083 63.5805 33.4583 62.957 31.681 61.71C29.918 60.463 28.5707 58.6642 27.639 56.3135C26.7217 53.9628 26.263 51.1392 26.263 47.8425C26.263 44.6462 26.7575 41.8942 27.7465 39.5865C28.7498 37.2645 30.1545 35.48 31.9605 34.233C33.7665 32.986 35.895 32.3625 38.346 32.3625ZM45.183 48.81C45.183 45.2697 44.9107 42.3887 44.366 40.167C43.8213 37.931 43.0258 36.297 41.9795 35.265C40.9332 34.2187 39.6575 33.6955 38.1525 33.6955C36.7192 33.6955 35.4937 34.19 34.476 35.179C33.4583 36.168 32.6772 37.6587 32.1325 39.651C31.5878 41.629 31.3155 44.1015 31.3155 47.0685C31.3155 50.6232 31.5807 53.5185 32.111 55.7545C32.6557 57.9905 33.4512 59.6317 34.4975 60.678C35.5438 61.71 36.8195 62.226 38.3245 62.226C39.7435 62.226 40.9618 61.7387 41.9795 60.764C43.0115 59.7893 43.7998 58.313 44.3445 56.335C44.9035 54.3427 45.183 51.8343 45.183 48.81ZM64.8939 46.918C64.8939 46.66 64.9297 46.4378 65.0014 46.2515C65.0874 46.0652 65.2092 45.8788 65.3669 45.6925L68.3124 42.8975C68.5131 42.7112 68.6707 42.5893 68.7854 42.532C68.9144 42.4603 69.0434 42.4245 69.1724 42.4245C69.3301 42.4245 69.4519 42.4747 69.5379 42.575C69.6382 42.6753 69.6884 42.833 69.6884 43.048V59.9255C69.6884 60.3125 69.7959 60.6063 70.0109 60.807C70.2259 61.0077 70.5269 61.1438 70.9139 61.2155L72.8919 61.581C73.1642 61.6383 73.3721 61.7315 73.5154 61.8605C73.6587 61.9752 73.7304 62.1257 73.7304 62.312C73.7304 62.527 73.6516 62.699 73.4939 62.828C73.3362 62.9427 73.0997 63 72.7844 63H61.6904C61.0597 63 60.7444 62.7707 60.7444 62.312C60.7444 61.9537 61.0167 61.71 61.5614 61.581L63.7114 61.194C64.0984 61.1223 64.3922 60.9933 64.5929 60.807C64.7936 60.6207 64.8939 60.334 64.8939 59.947V46.918ZM62.3139 41.5645C62.7726 41.1058 63.0951 40.6973 63.2814 40.339C63.4821 39.9663 63.5824 39.5507 63.5824 39.092C63.5824 38.7193 63.5179 38.3753 63.3889 38.06C63.2599 37.7447 63.1022 37.4365 62.9159 37.1355C62.7439 36.8202 62.5934 36.4905 62.4644 36.1465C62.3354 35.8025 62.2709 35.4155 62.2709 34.9855C62.2709 34.4265 62.3927 33.9248 62.6364 33.4805C62.8944 33.0362 63.2671 32.6922 63.7544 32.4485C64.2417 32.1905 64.8437 32.0615 65.5604 32.0615C66.5064 32.0615 67.2661 32.341 67.8394 32.9C68.4127 33.459 68.6994 34.2187 68.6994 35.179C68.6994 35.652 68.6134 36.1465 68.4414 36.6625C68.2837 37.1785 67.9827 37.7518 67.5384 38.3825C67.0941 39.0132 66.4491 39.7657 65.6034 40.64L53.3484 54.529L53.1119 53.8195L73.4724 53.8195C73.7447 53.8195 73.9669 53.8768 74.1389 53.9915C74.3109 54.0918 74.3969 54.2638 74.3969 54.5075C74.3969 55.0092 74.0744 55.26 73.4294 55.26L52.8109 55.26C52.4812 55.26 52.2232 55.1883 52.0369 55.045C51.8505 54.8873 51.7574 54.6795 51.7574 54.4215C51.7574 54.2638 51.8075 54.0918 51.9079 53.9055C52.0082 53.7192 52.1874 53.4898 52.4454 53.2175L62.3139 41.5645Z" fill="#242423"></path></svg>