<svg width="40" height="27" viewBox="0 0 40 27" fill="none" xmlns="http://www.w3.org/2000/svg">
<g clip-path="url(#clip0_401_1227)">
<path d="M22.6592 6.42776C23.3373 5.74594 23.7561 4.80563 23.7561 3.7669C23.7561 1.68622 22.0745 -0.000732422 20.0004 -0.000732422C18.6889 -0.000732422 17.5362 0.674688 16.8645 1.69582C16.6859 1.87508 1.73647 20.3595 1.59687 20.5716C0.918806 21.2534 0.5 22.1937 0.5 23.2316C0.5 25.3123 2.18161 26.9993 4.25569 26.9993C5.56715 26.9993 6.71987 26.3238 7.39155 25.3027C7.57024 25.1235 22.5196 6.63903 22.6592 6.42696V6.42776Z" fill="#CFDBD5"/>
<path d="M31.3072 15.1985C31.9869 14.5167 32.4065 13.5747 32.4065 12.5352C32.4065 10.4545 30.7249 8.76758 28.6508 8.76758C27.3393 8.76758 26.1858 9.443 25.5142 10.4657C25.3339 10.6466 17.4827 20.3554 17.3415 20.5698C16.6618 21.2516 16.2422 22.1936 16.2422 23.2331C16.2422 25.3138 17.9238 27.0007 19.9979 27.0007C21.3093 27.0007 22.4629 26.3253 23.1345 25.3026C23.3148 25.1217 31.166 15.4129 31.3072 15.1985Z" fill="#CFDBD5"/>
<path d="M39.4007 4.62637C39.874 2.60046 38.6205 0.57323 36.601 0.0984299C34.5815 -0.37637 32.5607 0.881054 32.0874 2.90696C31.6142 4.93287 32.8676 6.9601 34.8871 7.4349C36.9066 7.9097 38.9274 6.65227 39.4007 4.62637Z" fill="#CFDBD5"/>
<path d="M5.64185 7.26907C7.5696 6.50105 8.51172 4.31072 7.74613 2.37684C6.98055 0.442965 4.79716 -0.50215 2.86941 0.26587C0.941658 1.03389 -0.000462687 3.22421 0.765124 5.15809C1.53071 7.09197 3.71409 8.03709 5.64185 7.26907Z" fill="#CFDBD5"/>
</g>
<defs>
<clipPath id="clip0_401_1227">
<rect width="39" height="27" fill="white" transform="translate(0.5)"/>
</clipPath>
</defs>
</svg>
