<svg width="427" height="58" viewBox="0 0 427 58" fill="none" xmlns="http://www.w3.org/2000/svg">
<path d="M29.232 37.024L24.624 20.2H26.784L30.408 34.624L34.536 20.2H36.768L40.776 34.624L44.448 20.2H46.608L41.904 37H39.6L35.592 23.128L31.488 37L29.232 37.024ZM52.9924 37.288C51.8564 37.288 50.8484 37.032 49.9684 36.52C49.0884 35.992 48.3924 35.264 47.8804 34.336C47.3844 33.408 47.1364 32.312 47.1364 31.048C47.1364 29.8 47.3844 28.712 47.8804 27.784C48.3764 26.84 49.0644 26.112 49.9444 25.6C50.8404 25.072 51.8724 24.808 53.0404 24.808C54.1924 24.808 55.1844 25.072 56.0164 25.6C56.8644 26.112 57.5124 26.792 57.9604 27.64C58.4084 28.488 58.6324 29.4 58.6324 30.376C58.6324 30.552 58.6244 30.728 58.6084 30.904C58.6084 31.08 58.6084 31.28 58.6084 31.504H49.1284C49.1764 32.416 49.3844 33.176 49.7524 33.784C50.1364 34.376 50.6084 34.824 51.1684 35.128C51.7444 35.432 52.3524 35.584 52.9924 35.584C53.8244 35.584 54.5204 35.392 55.0804 35.008C55.6404 34.624 56.0484 34.104 56.3044 33.448H58.2964C57.9764 34.552 57.3604 35.472 56.4484 36.208C55.5524 36.928 54.4004 37.288 52.9924 37.288ZM52.9924 26.512C52.0324 26.512 51.1764 26.808 50.4244 27.4C49.6884 27.976 49.2644 28.824 49.1524 29.944H56.6404C56.5924 28.872 56.2244 28.032 55.5364 27.424C54.8484 26.816 54.0004 26.512 52.9924 26.512ZM61.3044 37V19.72H63.3204V37H61.3044ZM72.0968 37.288C70.9608 37.288 69.9368 37.032 69.0248 36.52C68.1288 35.992 67.4168 35.264 66.8888 34.336C66.3768 33.392 66.1208 32.296 66.1208 31.048C66.1208 29.8 66.3768 28.712 66.8888 27.784C67.4168 26.84 68.1288 26.112 69.0248 25.6C69.9368 25.072 70.9608 24.808 72.0968 24.808C73.5048 24.808 74.6888 25.176 75.6488 25.912C76.6248 26.648 77.2408 27.632 77.4968 28.864H75.4328C75.2728 28.128 74.8808 27.56 74.2568 27.16C73.6328 26.744 72.9048 26.536 72.0728 26.536C71.4008 26.536 70.7688 26.704 70.1768 27.04C69.5848 27.376 69.1048 27.88 68.7368 28.552C68.3688 29.224 68.1848 30.056 68.1848 31.048C68.1848 32.04 68.3688 32.872 68.7368 33.544C69.1048 34.216 69.5848 34.728 70.1768 35.08C70.7688 35.416 71.4008 35.584 72.0728 35.584C72.9048 35.584 73.6328 35.384 74.2568 34.984C74.8808 34.568 75.2728 33.984 75.4328 33.232H77.4968C77.2568 34.432 76.6488 35.408 75.6728 36.16C74.6968 36.912 73.5048 37.288 72.0968 37.288ZM85.7363 37.288C84.6163 37.288 83.6083 37.032 82.7123 36.52C81.8163 36.008 81.1043 35.288 80.5763 34.36C80.0643 33.416 79.8083 32.312 79.8083 31.048C79.8083 29.784 80.0723 28.688 80.6003 27.76C81.1283 26.816 81.8403 26.088 82.7363 25.576C83.6483 25.064 84.6643 24.808 85.7843 24.808C86.9043 24.808 87.9123 25.064 88.8083 25.576C89.7043 26.088 90.4083 26.816 90.9203 27.76C91.4483 28.688 91.7123 29.784 91.7123 31.048C91.7123 32.312 91.4483 33.416 90.9203 34.36C90.3923 35.288 89.6723 36.008 88.7603 36.52C87.8643 37.032 86.8563 37.288 85.7363 37.288ZM85.7363 35.56C86.4243 35.56 87.0643 35.392 87.6563 35.056C88.2483 34.72 88.7283 34.216 89.0963 33.544C89.4643 32.872 89.6483 32.04 89.6483 31.048C89.6483 30.056 89.4643 29.224 89.0963 28.552C88.7443 27.88 88.2723 27.376 87.6803 27.04C87.0883 26.704 86.4563 26.536 85.7843 26.536C85.0963 26.536 84.4563 26.704 83.8643 27.04C83.2723 27.376 82.7923 27.88 82.4243 28.552C82.0563 29.224 81.8723 30.056 81.8723 31.048C81.8723 32.04 82.0563 32.872 82.4243 33.544C82.7923 34.216 83.2643 34.72 83.8403 35.056C84.4323 35.392 85.0643 35.56 85.7363 35.56ZM94.5154 37V25.096H96.3394L96.4834 26.824C96.8674 26.184 97.3794 25.688 98.0194 25.336C98.6594 24.984 99.3794 24.808 100.179 24.808C101.123 24.808 101.931 25 102.603 25.384C103.291 25.768 103.819 26.352 104.187 27.136C104.603 26.416 105.171 25.848 105.891 25.432C106.627 25.016 107.419 24.808 108.267 24.808C109.691 24.808 110.827 25.24 111.675 26.104C112.523 26.952 112.947 28.264 112.947 30.04V37H110.955V30.256C110.955 29.024 110.707 28.096 110.211 27.472C109.715 26.848 109.003 26.536 108.075 26.536C107.115 26.536 106.315 26.912 105.675 27.664C105.051 28.4 104.739 29.456 104.739 30.832V37H102.723V30.256C102.723 29.024 102.475 28.096 101.979 27.472C101.483 26.848 100.771 26.536 99.8434 26.536C98.8994 26.536 98.1074 26.912 97.4674 27.664C96.8434 28.4 96.5314 29.456 96.5314 30.832V37H94.5154ZM121.336 37.288C120.2 37.288 119.192 37.032 118.312 36.52C117.432 35.992 116.736 35.264 116.224 34.336C115.728 33.408 115.48 32.312 115.48 31.048C115.48 29.8 115.728 28.712 116.224 27.784C116.72 26.84 117.408 26.112 118.288 25.6C119.184 25.072 120.216 24.808 121.384 24.808C122.536 24.808 123.528 25.072 124.36 25.6C125.208 26.112 125.856 26.792 126.304 27.64C126.752 28.488 126.976 29.4 126.976 30.376C126.976 30.552 126.968 30.728 126.952 30.904C126.952 31.08 126.952 31.28 126.952 31.504H117.472C117.52 32.416 117.728 33.176 118.096 33.784C118.48 34.376 118.952 34.824 119.512 35.128C120.088 35.432 120.696 35.584 121.336 35.584C122.168 35.584 122.864 35.392 123.424 35.008C123.984 34.624 124.392 34.104 124.648 33.448H126.64C126.32 34.552 125.704 35.472 124.792 36.208C123.896 36.928 122.744 37.288 121.336 37.288ZM121.336 26.512C120.376 26.512 119.52 26.808 118.768 27.4C118.032 27.976 117.608 28.824 117.496 29.944H124.984C124.936 28.872 124.568 28.032 123.88 27.424C123.192 26.816 122.344 26.512 121.336 26.512Z" fill="#333533"/>
<rect x="0.5" y="0.5" width="151" height="57" rx="28.5" stroke="#333533"/>
<path d="M190.36 37C189.272 37 188.416 36.736 187.792 36.208C187.168 35.68 186.856 34.728 186.856 33.352V26.8H184.792V25.096H186.856L187.12 22.24H188.872V25.096H192.376V26.8H188.872V33.352C188.872 34.104 189.024 34.616 189.328 34.888C189.632 35.144 190.168 35.272 190.936 35.272H192.184V37H190.36ZM200.033 37.288C198.913 37.288 197.905 37.032 197.009 36.52C196.113 36.008 195.401 35.288 194.873 34.36C194.361 33.416 194.105 32.312 194.105 31.048C194.105 29.784 194.369 28.688 194.897 27.76C195.425 26.816 196.137 26.088 197.033 25.576C197.945 25.064 198.961 24.808 200.081 24.808C201.201 24.808 202.209 25.064 203.105 25.576C204.001 26.088 204.705 26.816 205.217 27.76C205.745 28.688 206.009 29.784 206.009 31.048C206.009 32.312 205.745 33.416 205.217 34.36C204.689 35.288 203.969 36.008 203.057 36.52C202.161 37.032 201.153 37.288 200.033 37.288ZM200.033 35.56C200.721 35.56 201.361 35.392 201.953 35.056C202.545 34.72 203.025 34.216 203.393 33.544C203.761 32.872 203.945 32.04 203.945 31.048C203.945 30.056 203.761 29.224 203.393 28.552C203.041 27.88 202.569 27.376 201.977 27.04C201.385 26.704 200.753 26.536 200.081 26.536C199.393 26.536 198.753 26.704 198.161 27.04C197.569 27.376 197.089 27.88 196.721 28.552C196.353 29.224 196.169 30.056 196.169 31.048C196.169 32.04 196.353 32.872 196.721 33.544C197.089 34.216 197.561 34.72 198.137 35.056C198.729 35.392 199.361 35.56 200.033 35.56ZM220.588 37.288C219.468 37.288 218.46 37.032 217.564 36.52C216.668 36.008 215.956 35.288 215.428 34.36C214.916 33.416 214.66 32.312 214.66 31.048C214.66 29.784 214.924 28.688 215.452 27.76C215.98 26.816 216.692 26.088 217.588 25.576C218.5 25.064 219.516 24.808 220.636 24.808C221.756 24.808 222.764 25.064 223.66 25.576C224.556 26.088 225.26 26.816 225.772 27.76C226.3 28.688 226.564 29.784 226.564 31.048C226.564 32.312 226.3 33.416 225.772 34.36C225.244 35.288 224.524 36.008 223.612 36.52C222.716 37.032 221.708 37.288 220.588 37.288ZM220.588 35.56C221.276 35.56 221.916 35.392 222.508 35.056C223.1 34.72 223.58 34.216 223.948 33.544C224.316 32.872 224.5 32.04 224.5 31.048C224.5 30.056 224.316 29.224 223.948 28.552C223.596 27.88 223.124 27.376 222.532 27.04C221.94 26.704 221.308 26.536 220.636 26.536C219.948 26.536 219.308 26.704 218.716 27.04C218.124 27.376 217.644 27.88 217.276 28.552C216.908 29.224 216.724 30.056 216.724 31.048C216.724 32.04 216.908 32.872 217.276 33.544C217.644 34.216 218.116 34.72 218.692 35.056C219.284 35.392 219.916 35.56 220.588 35.56ZM233.711 37.288C232.303 37.288 231.183 36.864 230.351 36.016C229.519 35.152 229.103 33.832 229.103 32.056V25.096H231.119V31.84C231.119 34.32 232.135 35.56 234.167 35.56C235.207 35.56 236.063 35.192 236.735 34.456C237.423 33.704 237.767 32.64 237.767 31.264V25.096H239.783V37H237.959L237.815 34.864C237.447 35.616 236.895 36.208 236.159 36.64C235.439 37.072 234.623 37.288 233.711 37.288ZM243.101 37V25.096H244.925L245.093 27.376C245.461 26.592 246.021 25.968 246.773 25.504C247.525 25.04 248.453 24.808 249.557 24.808V26.92H249.005C248.301 26.92 247.653 27.048 247.061 27.304C246.469 27.544 245.997 27.96 245.645 28.552C245.293 29.144 245.117 29.96 245.117 31V37H243.101ZM263.644 37.288C262.412 37.288 261.34 37.064 260.428 36.616C259.516 36.168 258.812 35.544 258.316 34.744C257.82 33.944 257.572 33.016 257.572 31.96H259.684C259.684 32.616 259.836 33.224 260.14 33.784C260.444 34.328 260.884 34.768 261.46 35.104C262.052 35.424 262.78 35.584 263.644 35.584C264.78 35.584 265.66 35.312 266.284 34.768C266.908 34.224 267.22 33.544 267.22 32.728C267.22 32.056 267.076 31.52 266.788 31.12C266.5 30.704 266.108 30.368 265.612 30.112C265.132 29.856 264.572 29.632 263.932 29.44C263.308 29.248 262.652 29.032 261.964 28.792C260.668 28.344 259.708 27.792 259.084 27.136C258.46 26.464 258.148 25.592 258.148 24.52C258.132 23.624 258.34 22.832 258.772 22.144C259.204 21.44 259.812 20.896 260.596 20.512C261.396 20.112 262.34 19.912 263.428 19.912C264.5 19.912 265.428 20.112 266.212 20.512C267.012 20.912 267.628 21.464 268.06 22.168C268.508 22.872 268.74 23.672 268.756 24.568H266.644C266.644 24.104 266.524 23.648 266.284 23.2C266.044 22.736 265.676 22.36 265.18 22.072C264.7 21.784 264.092 21.64 263.356 21.64C262.444 21.624 261.692 21.856 261.1 22.336C260.524 22.816 260.236 23.48 260.236 24.328C260.236 25.048 260.436 25.6 260.836 25.984C261.252 26.368 261.828 26.688 262.564 26.944C263.3 27.184 264.148 27.464 265.108 27.784C265.908 28.072 266.628 28.408 267.268 28.792C267.908 29.176 268.404 29.672 268.756 30.28C269.124 30.888 269.308 31.664 269.308 32.608C269.308 33.408 269.1 34.168 268.684 34.888C268.268 35.592 267.636 36.168 266.788 36.616C265.956 37.064 264.908 37.288 263.644 37.288ZM276.751 37C275.663 37 274.807 36.736 274.183 36.208C273.559 35.68 273.247 34.728 273.247 33.352V26.8H271.183V25.096H273.247L273.511 22.24H275.263V25.096H278.767V26.8H275.263V33.352C275.263 34.104 275.415 34.616 275.719 34.888C276.023 35.144 276.559 35.272 277.327 35.272H278.575V37H276.751ZM285.672 37.288C284.264 37.288 283.144 36.864 282.312 36.016C281.48 35.152 281.064 33.832 281.064 32.056V25.096H283.08V31.84C283.08 34.32 284.096 35.56 286.128 35.56C287.168 35.56 288.024 35.192 288.696 34.456C289.384 33.704 289.728 32.64 289.728 31.264V25.096H291.744V37H289.92L289.776 34.864C289.408 35.616 288.856 36.208 288.12 36.64C287.4 37.072 286.584 37.288 285.672 37.288ZM300.462 37.288C299.278 37.288 298.238 37.016 297.342 36.472C296.462 35.928 295.774 35.184 295.278 34.24C294.798 33.296 294.558 32.224 294.558 31.024C294.558 29.824 294.806 28.76 295.302 27.832C295.798 26.888 296.486 26.152 297.366 25.624C298.246 25.08 299.286 24.808 300.486 24.808C301.462 24.808 302.326 25.008 303.078 25.408C303.83 25.808 304.414 26.368 304.83 27.088V19.72H306.846V37H305.022L304.83 35.032C304.446 35.608 303.894 36.128 303.174 36.592C302.454 37.056 301.55 37.288 300.462 37.288ZM300.678 35.536C301.478 35.536 302.182 35.352 302.79 34.984C303.414 34.6 303.894 34.072 304.23 33.4C304.582 32.728 304.758 31.944 304.758 31.048C304.758 30.152 304.582 29.368 304.23 28.696C303.894 28.024 303.414 27.504 302.79 27.136C302.182 26.752 301.478 26.56 300.678 26.56C299.894 26.56 299.19 26.752 298.566 27.136C297.958 27.504 297.478 28.024 297.126 28.696C296.79 29.368 296.622 30.152 296.622 31.048C296.622 31.944 296.79 32.728 297.126 33.4C297.478 34.072 297.958 34.6 298.566 34.984C299.19 35.352 299.894 35.536 300.678 35.536ZM311.357 22.456C310.957 22.456 310.621 22.328 310.349 22.072C310.093 21.8 309.965 21.464 309.965 21.064C309.965 20.68 310.093 20.36 310.349 20.104C310.621 19.848 310.957 19.72 311.357 19.72C311.741 19.72 312.069 19.848 312.341 20.104C312.613 20.36 312.749 20.68 312.749 21.064C312.749 21.464 312.613 21.8 312.341 22.072C312.069 22.328 311.741 22.456 311.357 22.456ZM310.349 37V25.096H312.365V37H310.349ZM321.299 37.288C320.179 37.288 319.171 37.032 318.275 36.52C317.379 36.008 316.667 35.288 316.139 34.36C315.627 33.416 315.371 32.312 315.371 31.048C315.371 29.784 315.635 28.688 316.163 27.76C316.691 26.816 317.403 26.088 318.299 25.576C319.211 25.064 320.227 24.808 321.347 24.808C322.467 24.808 323.475 25.064 324.371 25.576C325.267 26.088 325.971 26.816 326.483 27.76C327.011 28.688 327.275 29.784 327.275 31.048C327.275 32.312 327.011 33.416 326.483 34.36C325.955 35.288 325.235 36.008 324.323 36.52C323.427 37.032 322.419 37.288 321.299 37.288ZM321.299 35.56C321.987 35.56 322.627 35.392 323.219 35.056C323.811 34.72 324.291 34.216 324.659 33.544C325.027 32.872 325.211 32.04 325.211 31.048C325.211 30.056 325.027 29.224 324.659 28.552C324.307 27.88 323.835 27.376 323.243 27.04C322.651 26.704 322.019 26.536 321.347 26.536C320.659 26.536 320.019 26.704 319.427 27.04C318.835 27.376 318.355 27.88 317.987 28.552C317.619 29.224 317.435 30.056 317.435 31.048C317.435 32.04 317.619 32.872 317.987 33.544C318.355 34.216 318.827 34.72 319.403 35.056C319.995 35.392 320.627 35.56 321.299 35.56Z" fill="#333533"/>
<rect x="160.5" y="0.5" width="192" height="57" rx="28.5" stroke="#333533"/>
<path fill-rule="evenodd" clip-rule="evenodd" d="M395 34H385.334V32.389H392.25L385 25.1393L386.139 24.0001L393.389 31.2499V24.3338H395V34Z" fill="#333533"/>
<rect x="361.5" y="0.5" width="57" height="56.9999" rx="28.5" stroke="#333533"/>
</svg>
