<svg xmlns="http://www.w3.org/2000/svg" width="99" height="95" viewBox="0 0 99 95" fill="none"><rect x="0.5" width="98" height="95" rx="24" fill="#F5CB5C"></rect><path d="M38.346 32.3625C40.8543 32.3625 42.99 32.986 44.753 34.233C46.5303 35.4657 47.8848 37.2502 48.8165 39.5865C49.7625 41.9228 50.2355 44.7322 50.2355 48.0145C50.2355 51.2538 49.7338 54.0345 48.7305 56.3565C47.7415 58.6785 46.3368 60.463 44.5165 61.71C42.7105 62.957 40.582 63.5805 38.131 63.5805C35.6083 63.5805 33.4583 62.957 31.681 61.71C29.918 60.463 28.5707 58.6642 27.639 56.3135C26.7217 53.9628 26.263 51.1392 26.263 47.8425C26.263 44.6462 26.7575 41.8942 27.7465 39.5865C28.7498 37.2645 30.1545 35.48 31.9605 34.233C33.7665 32.986 35.895 32.3625 38.346 32.3625ZM45.183 48.81C45.183 45.2697 44.9107 42.3887 44.366 40.167C43.8213 37.931 43.0258 36.297 41.9795 35.265C40.9332 34.2187 39.6575 33.6955 38.1525 33.6955C36.7192 33.6955 35.4937 34.19 34.476 35.179C33.4583 36.168 32.6772 37.6587 32.1325 39.651C31.5878 41.629 31.3155 44.1015 31.3155 47.0685C31.3155 50.6232 31.5807 53.5185 32.111 55.7545C32.6557 57.9905 33.4512 59.6317 34.4975 60.678C35.5438 61.71 36.8195 62.226 38.3245 62.226C39.7435 62.226 40.9618 61.7387 41.9795 60.764C43.0115 59.7893 43.7998 58.313 44.3445 56.335C44.9035 54.3427 45.183 51.8343 45.183 48.81ZM60.7014 47.133L60.2929 46.5955C60.4792 46.5668 60.687 46.5453 60.9164 46.531C61.16 46.5167 61.4037 46.5023 61.6474 46.488C61.9054 46.4737 62.1562 46.4665 62.3999 46.4665C64.5212 46.4665 66.3344 46.7818 67.8394 47.4125C69.3587 48.0288 70.5197 48.9318 71.3224 50.1215C72.1251 51.3112 72.5264 52.7732 72.5264 54.5075C72.5264 56.3135 72.0892 57.8973 71.2149 59.259C70.3549 60.6207 69.1437 61.6813 67.5814 62.441C66.0191 63.2007 64.1844 63.5805 62.0774 63.5805C60.0564 63.5805 58.3435 63.2938 56.9389 62.7205C55.5485 62.1328 54.4879 61.3445 53.7569 60.3555C53.0402 59.3665 52.6819 58.2628 52.6819 57.0445C52.6819 56.1272 52.9255 55.4033 53.4129 54.873C53.9002 54.3283 54.5165 54.056 55.2619 54.056C55.9785 54.056 56.5232 54.2782 56.8959 54.7225C57.2829 55.1525 57.4764 55.7473 57.4764 56.507V58.442C57.4764 59.6173 57.8777 60.5633 58.6804 61.28C59.4974 61.9823 60.6727 62.3335 62.2064 62.3335C63.2957 62.3192 64.2632 62.054 65.1089 61.538C65.9546 61.022 66.6139 60.248 67.0869 59.216C67.5742 58.184 67.8179 56.894 67.8179 55.346C67.8179 52.852 67.2661 51.0102 66.1624 49.8205C65.073 48.6165 63.4247 48.0145 61.2174 48.0145H59.8199C59.4902 48.0145 59.2465 47.9572 59.0889 47.8425C58.9455 47.7135 58.8739 47.5272 58.8739 47.2835C58.8739 47.0972 58.9241 46.9252 59.0244 46.7675C59.1247 46.5955 59.311 46.3662 59.5834 46.0795L69.3874 35.523L69.5379 36.77H57.3259C56.9102 36.77 56.5805 36.856 56.3369 37.028C56.0932 37.1857 55.9284 37.4508 55.8424 37.8235L55.1974 40.4035C55.14 40.6185 55.0325 40.7905 54.8749 40.9195C54.7315 41.0485 54.5309 41.113 54.2729 41.113C54.0292 41.0987 53.8285 41.0198 53.6709 40.8765C53.5275 40.7188 53.4702 40.4823 53.4989 40.167L54.1869 34.0825C54.2299 33.7098 54.3804 33.4232 54.6384 33.2225C54.8964 33.0075 55.2619 32.9 55.7349 32.9H71.6879C72.0749 32.9 72.3544 32.9573 72.5264 33.072C72.7127 33.1723 72.8059 33.3372 72.8059 33.5665C72.8059 33.7385 72.7414 33.932 72.6124 34.147C72.4834 34.362 72.2111 34.6845 71.7954 35.1145L60.7014 47.133Z" fill="#242423"></path></svg>