<svg xmlns="http://www.w3.org/2000/svg" width="95" height="95" viewBox="0 0 95 95" fill="none"><rect x="0.5" width="94" height="95" rx="24" fill="#F5CB5C"></rect><path d="M38.346 32.3625C40.8543 32.3625 42.99 32.986 44.753 34.233C46.5303 35.4657 47.8848 37.2502 48.8165 39.5865C49.7625 41.9228 50.2355 44.7322 50.2355 48.0145C50.2355 51.2538 49.7338 54.0345 48.7305 56.3565C47.7415 58.6785 46.3368 60.463 44.5165 61.71C42.7105 62.957 40.582 63.5805 38.131 63.5805C35.6083 63.5805 33.4583 62.957 31.681 61.71C29.918 60.463 28.5707 58.6642 27.639 56.3135C26.7217 53.9628 26.263 51.1392 26.263 47.8425C26.263 44.6462 26.7575 41.8942 27.7465 39.5865C28.7498 37.2645 30.1545 35.48 31.9605 34.233C33.7665 32.986 35.895 32.3625 38.346 32.3625ZM45.183 48.81C45.183 45.2697 44.9107 42.3887 44.366 40.167C43.8213 37.931 43.0258 36.297 41.9795 35.265C40.9332 34.2187 39.6575 33.6955 38.1525 33.6955C36.7192 33.6955 35.4937 34.19 34.476 35.179C33.4583 36.168 32.6772 37.6587 32.1325 39.651C31.5878 41.629 31.3155 44.1015 31.3155 47.0685C31.3155 50.6232 31.5807 53.5185 32.111 55.7545C32.6557 57.9905 33.4512 59.6317 34.4975 60.678C35.5438 61.71 36.8195 62.226 38.3245 62.226C39.7435 62.226 40.9618 61.7387 41.9795 60.764C43.0115 59.7893 43.7998 58.313 44.3445 56.335C44.9035 54.3427 45.183 51.8343 45.183 48.81ZM54.1439 35.91C53.7855 35.91 53.5204 35.8383 53.3484 35.695C53.1907 35.5517 53.1119 35.351 53.1119 35.093C53.1119 34.8637 53.205 34.6773 53.3914 34.534C53.5777 34.3763 53.8357 34.2975 54.1654 34.2975H57.3689C58.2862 34.2832 59.0387 34.1613 59.6264 33.932C60.2284 33.6883 60.8089 33.2512 61.3679 32.6205C61.5399 32.4055 61.7047 32.2622 61.8624 32.1905C62.0344 32.1045 62.2279 32.0615 62.4429 32.0615C63.0019 32.0615 63.2814 32.3768 63.2814 33.0075L63.2814 59.7105C63.2814 60.1405 63.3817 60.4773 63.5824 60.721C63.7974 60.9503 64.1271 61.1008 64.5714 61.1725L67.4524 61.581C67.9684 61.6813 68.2264 61.925 68.2264 62.312C68.2264 62.527 68.1547 62.699 68.0114 62.828C67.868 62.9427 67.6387 63 67.3234 63H53.9504C53.635 63 53.3914 62.9427 53.2194 62.828C53.0617 62.699 52.9829 62.527 52.9829 62.312C52.9829 61.9107 53.2695 61.6598 53.8429 61.5595L56.9819 61.1725C57.4119 61.1152 57.7415 60.9718 57.9709 60.7425C58.2145 60.4988 58.3364 60.1548 58.3364 59.7105L58.3364 37.3075C58.3364 36.7772 58.2432 36.4188 58.0569 36.2325C57.8705 36.0318 57.5624 35.9315 57.1324 35.9315L54.1439 35.91Z" fill="#242423"></path></svg>