<svg xmlns="http://www.w3.org/2000/svg" width="101" height="95" viewBox="0 0 101 95" fill="none"><rect x="0.5" width="100" height="95" rx="24" fill="#F5CB5C"></rect><path d="M38.346 32.3625C40.8543 32.3625 42.99 32.986 44.753 34.233C46.5303 35.4657 47.8848 37.2502 48.8165 39.5865C49.7625 41.9228 50.2355 44.7322 50.2355 48.0145C50.2355 51.2538 49.7338 54.0345 48.7305 56.3565C47.7415 58.6785 46.3368 60.463 44.5165 61.71C42.7105 62.957 40.582 63.5805 38.131 63.5805C35.6083 63.5805 33.4583 62.957 31.681 61.71C29.918 60.463 28.5707 58.6642 27.639 56.3135C26.7217 53.9628 26.263 51.1392 26.263 47.8425C26.263 44.6462 26.7575 41.8942 27.7465 39.5865C28.7498 37.2645 30.1545 35.48 31.9605 34.233C33.7665 32.986 35.895 32.3625 38.346 32.3625ZM45.183 48.81C45.183 45.2697 44.9107 42.3887 44.366 40.167C43.8213 37.931 43.0258 36.297 41.9795 35.265C40.9332 34.2187 39.6575 33.6955 38.1525 33.6955C36.7192 33.6955 35.4937 34.19 34.476 35.179C33.4583 36.168 32.6772 37.6587 32.1325 39.651C31.5878 41.629 31.3155 44.1015 31.3155 47.0685C31.3155 50.6232 31.5807 53.5185 32.111 55.7545C32.6557 57.9905 33.4512 59.6317 34.4975 60.678C35.5438 61.71 36.8195 62.226 38.3245 62.226C39.7435 62.226 40.9618 61.7387 41.9795 60.764C43.0115 59.7893 43.7998 58.313 44.3445 56.335C44.9035 54.3427 45.183 51.8343 45.183 48.81ZM55.7779 57.9905L54.9609 57.238L60.7229 52.766C62.5576 51.39 64.0267 50.0785 65.1304 48.8315C66.2484 47.5702 67.0582 46.2873 67.5599 44.983C68.0616 43.6643 68.3124 42.2382 68.3124 40.7045C68.3124 39.0705 68.0974 37.7303 67.6674 36.684C67.2517 35.6233 66.6641 34.835 65.9044 34.319C65.1591 33.803 64.2919 33.545 63.3029 33.545C61.6689 33.545 60.4577 33.9965 59.6694 34.8995C58.8954 35.8025 58.5084 36.9348 58.5084 38.2965V40.4035C58.5084 41.2062 58.279 41.8368 57.8204 42.2955C57.376 42.7542 56.7812 42.9835 56.0359 42.9835C55.3049 42.9835 54.7244 42.7398 54.2944 42.2525C53.8644 41.7652 53.6494 41.07 53.6494 40.167C53.6494 38.8053 54.0292 37.5297 54.7889 36.34C55.5629 35.1503 56.7095 34.19 58.2289 33.459C59.7482 32.7137 61.6116 32.341 63.8189 32.341C65.9546 32.341 67.7319 32.6993 69.1509 33.416C70.5699 34.1183 71.6377 35.0858 72.3544 36.3185C73.0711 37.5368 73.4294 38.9272 73.4294 40.4895C73.4294 41.8798 73.1141 43.1985 72.4834 44.4455C71.8671 45.6782 70.8279 46.961 69.3659 48.294C67.9039 49.627 65.9116 51.132 63.3889 52.809L55.7779 57.9905ZM53.0259 60.85C53.0259 59.4883 53.5275 58.3632 54.5309 57.4745C55.5342 56.5858 56.9747 56.1415 58.8524 56.1415C59.7984 56.1415 60.7229 56.292 61.6259 56.593C62.5289 56.8797 63.4176 57.2165 64.2919 57.6035C65.1805 57.9762 66.062 58.3058 66.9364 58.5925C67.8107 58.8792 68.6851 59.0225 69.5594 59.0225C70.6201 59.0225 71.4371 58.8003 72.0104 58.356C72.5837 57.8973 73.0639 57.152 73.4509 56.12C73.5512 55.905 73.6731 55.7545 73.8164 55.6685C73.9597 55.5825 74.1102 55.5538 74.2679 55.5825C74.4542 55.5968 74.5975 55.6828 74.6979 55.8405C74.7982 55.9982 74.8341 56.2418 74.8054 56.5715C74.5904 58.2915 74.2177 59.6603 73.6874 60.678C73.1714 61.6957 72.5049 62.4338 71.6879 62.8925C70.8852 63.3368 69.9392 63.559 68.8499 63.559C67.9612 63.559 67.1585 63.43 66.4419 63.172C65.7252 62.914 65.0444 62.4983 64.3994 61.925C63.7544 61.3373 63.095 60.5633 62.4214 59.603C61.762 58.872 61.2174 58.3703 60.7874 58.098C60.3574 57.8257 59.9274 57.6895 59.4974 57.6895C58.967 57.6895 58.5585 57.9117 58.2719 58.356C57.9852 58.786 57.8132 59.5242 57.7559 60.5705C57.6985 61.3015 57.5624 61.8892 57.3474 62.3335C57.1324 62.7635 56.8385 63.0717 56.4659 63.258C56.1075 63.4443 55.6704 63.5375 55.1544 63.5375C54.5524 63.5375 54.0435 63.301 53.6279 62.828C53.2265 62.355 53.0259 61.6957 53.0259 60.85Z" fill="#242423"></path></svg>